<svg width="48" height="40" viewBox="0 0 48 40" fill="none" xmlns="http://www.w3.org/2000/svg">
<path fill-rule="evenodd" clip-rule="evenodd" d="M41.4044 10.8233C45.2925 13.8534 47.2083 18.0438 47.2782 22.8694C47.3244 26.0642 46.7605 29.2044 45.3133 31.9635C44.5857 33.2025 43.6672 34.3565 42.532 35.3927C38.8665 38.7386 33.9478 39.9247 28.9245 39.9966C23.9013 40.0684 18.9503 39.0233 15.1894 35.7837C13.5286 34.3531 12.302 32.6717 11.4357 30.8332C9.5802 30.9439 7.67833 30.4069 6.10056 29.1784L6.09841 29.1767C2.21032 26.1466 0.29446 21.9562 0.224598 17.1307C0.178345 13.9358 0.7426 10.795 2.18987 8.03588C2.91744 6.79686 3.83563 5.64346 4.97083 4.60726C8.63632 1.26145 13.555 0.0752566 18.5783 0.00342939C23.6015 -0.0683978 28.5525 0.976665 32.3134 4.21629C33.9741 5.64691 35.2008 7.32833 36.0671 9.16685C37.9226 9.05607 39.8245 9.59307 41.4022 10.8216L41.4044 10.8233ZM8.66105 16.8958C8.66105 19.1315 9.3636 20.6969 10.9402 21.9727C11.6477 22.5453 11.7598 23.5894 11.1876 24.301C10.6153 25.0125 9.57799 25.1234 8.86885 24.5492C6.51054 22.6379 5.36272 20.1359 5.36272 16.8958C5.36272 9.04059 9.80887 5.05754 18.5841 5.05754C27.3593 5.05754 31.8071 9.04059 31.8071 16.8958C31.8071 20.1458 30.6593 22.6495 28.2977 24.5509C27.9942 24.7958 27.6298 24.9149 27.2669 24.9149C26.7854 24.9149 26.3055 24.7031 25.9806 24.296C25.41 23.5828 25.5238 22.5403 26.2346 21.9694C27.8079 20.7018 28.5104 19.1364 28.5104 16.8958C28.5104 12.6778 27.3313 8.3671 18.5857 8.3671C9.8402 8.3671 8.66105 12.6795 8.66105 16.8958ZM35.8195 15.6018C36.3918 14.8919 37.4291 14.7777 38.1382 15.3536V15.3519C40.4966 17.2632 41.6444 19.7652 41.6444 23.0053C41.6444 30.8605 37.1966 34.8436 28.4214 34.8436C19.6461 34.8436 15.1983 30.8605 15.1983 23.0053C15.1983 19.7553 16.3462 17.2516 18.7078 15.3503C19.4169 14.7777 20.4559 14.8902 21.0265 15.6051C21.5971 16.3183 21.4833 17.3608 20.7725 17.9317C19.1992 19.1993 18.4967 20.7647 18.4967 23.0053C18.4967 27.2233 19.6758 31.534 28.4214 31.534C37.1669 31.534 38.346 27.2217 38.346 23.0053C38.346 20.7697 37.6435 19.2043 36.0669 17.9284C35.3594 17.3559 35.2473 16.3134 35.8195 15.6018Z" fill="#2C46B1"/>
</svg>
