<svg width="118" height="40" viewBox="0 0 118 40" fill="none" xmlns="http://www.w3.org/2000/svg">
<path d="M9.31712 17.908H1.50404L0.562256 19.3392H8.37528L9.31712 17.908Z" fill="#2C46B1"/>
<path d="M17.8415 3.59644H10.0284L9.08655 5.02779H16.8996L17.8415 3.59644Z" fill="#2C46B1"/>
<path d="M86.7369 17.908H78.9238L77.9819 19.3392H85.795L86.7369 17.908Z" fill="#2C46B1"/>
<path d="M95.2612 3.59644H87.4482L86.5063 5.02779H94.3193L95.2612 3.59644Z" fill="#2C46B1"/>
<path d="M63.3506 23.5908H61.6038V25.1096H63.3506V23.5908Z" fill="#2C46B1"/>
<path d="M35.2032 26.1728L30.3437 26.1597L30.3466 25.1098H31.9613V23.5909H30.3506L30.3926 7.89049H33.8298L34.7717 6.45919H30.3964L30.4002 5.02789H33.3063L34.2482 3.59659H30.404L30.4116 0.748008L25.1686 0.733887L25.1659 0.737867L23.7056 0.733887L23.7024 0.738739L22.1929 0.734978L20.3091 3.59719H21.8215L20.8801 5.02795L20.8799 5.02827H19.3672L18.4253 6.45941H19.9381L18.9965 7.89043H17.4834L9.00662 20.7721H4.78001L3.83818 22.2035H8.06473L5.50012 26.1008L5.49887 26.4974H2.65326L1.71143 27.9286H5.49442L5.48371 31.3625L22.1111 31.4085L22.1005 35.0852H16.0238L15.082 36.5165H22.0964L22.0882 39.3649L27.1919 39.3777V39.3791H33.566L34.5079 37.9478H30.3122L30.316 36.5165H32.7984L33.7402 35.0852H30.3199L30.3297 31.4296L32.2106 31.4347L32.2106 31.4308L33.7262 31.4349V31.4309L35.1891 31.4349L35.1908 30.7913H36.5885L37.5304 29.36H35.1947L35.1985 27.9286H38.1238L39.0657 26.4974H35.2024L35.2032 26.1728ZM22.1243 26.1375L15.6621 26.1202L18.3072 22.2035H18.3072L19.2739 20.7721L22.149 16.5148L22.1243 26.1375Z" fill="#2C46B1"/>
<path d="M112.623 26.1728L107.763 26.1597L107.766 25.1098H109.381V23.5909H107.77L107.812 7.89049H111.249L112.191 6.45919H107.816L107.82 5.02789H110.726L111.668 3.59659H107.824L107.831 0.748008L102.588 0.733887L102.586 0.737867L101.125 0.733887L101.122 0.738739L99.6125 0.734978L97.7287 3.59719H99.2411L99.0339 3.91204L98.2996 5.02795L98.2995 5.02827H96.7868L95.8449 6.45941H97.3577L96.416 7.89043H94.9029L86.4262 20.7722H82.1996L81.2578 22.2036H85.4844L82.9197 26.101L82.9185 26.4975H80.0729L79.1311 27.9287H82.914L82.9034 31.3626L99.5307 31.4086L99.5201 35.0853H93.4434L92.5016 36.5166H99.516L99.5078 39.365L104.611 39.3778V39.3792H110.986L111.927 37.9479H107.732L107.736 36.5166H110.218L111.16 35.0853H107.739L107.749 31.4297L109.63 31.4348V31.4309L111.146 31.435V31.431L112.609 31.435L112.61 30.7914H114.008L114.95 29.3601H112.614L112.618 27.9287H115.543L116.485 26.4975H112.622L112.623 26.1728ZM99.5439 26.1375L93.0818 26.1202L95.7269 22.2035L96.6935 20.7721L99.5686 16.5148L99.5439 26.1375Z" fill="#2C46B1"/>
<path d="M76.3207 27.9285L77.2625 26.4973H73.9506L73.9774 16.4781H77.0402L77.982 15.0468H73.9812L73.9878 12.5985C73.9926 10.9399 73.6679 9.3439 73.0754 7.89035H74.5541L75.4959 6.45905H72.3817C72.0981 5.95881 71.7809 5.48077 71.4332 5.02775H75.1612L76.103 3.59645H70.1463C69.6624 3.1358 69.1411 2.71419 68.5873 2.33637C66.6286 0.998751 64.2466 0.211098 61.7054 0.205373C61.4532 0.204664 61.2025 0.211754 60.9535 0.226203C60.7256 0.213008 60.4961 0.205918 60.2654 0.205373C59.941 0.204446 59.6191 0.216278 59.3001 0.240325C59.0098 0.219004 58.7172 0.207663 58.4223 0.206954C56.7294 0.202046 55.1017 0.543938 53.6251 1.16648C52.2405 1.75025 50.9874 2.57766 49.9169 3.59629H46.4125L45.4707 5.02759H48.6298C48.4799 5.2228 48.3355 5.42259 48.1972 5.6269C46.9254 7.50255 46.1526 9.76501 46.0795 12.1841H43.3755L42.4337 13.6154H46.0709L46.0595 17.9079H39.7009L38.759 19.3392H46.0556L46.0518 20.772H42.9768L42.0351 22.2034H46.048L46.0365 26.4973H42.3061L41.3642 27.9285H46.1145C46.2477 29.1134 46.5484 30.252 46.9925 31.3129C47.5833 32.7245 48.4248 33.9997 49.4619 35.0851H47.7529L46.8111 36.5163H51.0919C51.2055 36.5995 51.3204 36.681 51.4368 36.7604C53.3955 38.098 55.7775 38.8857 58.3187 38.8914C58.6433 38.8924 58.9652 38.8804 59.2843 38.8564C59.5744 38.8777 59.867 38.889 60.1619 38.8897C60.4142 38.8905 60.665 38.8834 60.9141 38.8689C61.1419 38.8821 61.3712 38.8892 61.6018 38.8897C63.2948 38.8946 64.9225 38.5527 66.399 37.9302C68.6152 36.9959 70.4943 35.4375 71.827 33.4698C72.3861 32.6451 72.8487 31.7457 73.1979 30.7911H76.0343L76.9761 29.3598H73.6253C73.7346 28.8919 73.8175 28.4142 73.8722 27.9284H76.3207V27.9285ZM65.2443 26.5501C65.2413 27.5128 65.0464 28.4152 64.6966 29.2404C64.1722 30.4768 63.2918 31.5362 62.1883 32.2795C61.5263 32.7247 60.7898 33.0569 59.9969 33.2513C59.6309 33.1618 59.2768 33.0431 58.9359 32.8976C57.7039 32.3713 56.6485 31.4877 55.9077 30.3802C55.1672 29.2709 54.7398 27.9535 54.7426 26.5115L54.7541 22.2047H56.5037L57.4718 20.7736H54.758L54.7799 12.5468C54.7829 11.5842 54.9777 10.6817 55.3277 9.85657C55.6355 9.13069 56.0662 8.466 56.5925 7.8903H59.0584L60 6.45927H58.4307C58.9301 6.19121 59.4644 5.98357 60.0273 5.84556C60.3933 5.93504 60.7475 6.05375 61.0883 6.19933C62.3203 6.72564 63.3758 7.60926 64.1165 8.71672C64.857 9.82603 65.2844 11.1435 65.2817 12.5855L65.2443 26.5501Z" fill="#2C46B1"/>
<path d="M35.2024 26.4973L35.2032 26.1728L30.3438 26.1597L30.3466 25.1098H31.9613V23.5909H30.3506L30.3926 7.89049H33.8298L34.7717 6.45919H30.3965L30.4003 5.02789H33.3063L34.2482 3.59659H30.4041L30.4117 0.748008L25.1686 0.733887L25.166 0.737867L23.7056 0.733887L23.7024 0.738739L21.8219 3.59659H23.2849L22.343 5.02789H20.8801L20.8799 5.02822L19.9381 6.45935H22.958L22.0164 7.89038H18.9965L12.4044 17.9081H13.5751L12.6332 19.3392H11.4627L10.5198 20.7721H6.15697L5.21513 22.2035H9.57795L7.01334 26.1008L7.01225 26.4974H4.03022L3.08838 27.9286H7.00839L6.99916 31.3628L23.6236 31.4077L23.6215 32.1788H25.1155V33.6975H23.6175L23.6138 35.0851L23.61 36.5164L23.6024 39.3647L27.1919 39.3744V39.379H33.5661L34.5079 37.9477H30.3122L30.3161 36.5164H32.7984L33.7402 35.0851H30.32L30.3297 31.4296V31.4256L32.2106 31.4307L33.7262 31.4348V31.4308L35.1891 31.4348L35.1908 30.7912H36.5886L37.5305 29.3599H35.1947L35.1985 27.9286H38.1239L39.0658 26.4973H35.2024ZM25.1539 25.1097H23.6405L23.6377 26.1416L22.1243 26.1375L15.6621 26.1202L18.3072 22.2035L19.2739 20.7721L22.149 16.5148L23.6696 14.2631L23.6446 23.5909H25.154V25.1097H25.1539Z" fill="#B12C4D"/>
<path d="M112.622 26.4973L112.623 26.1728L107.764 26.1597L107.766 25.1098H109.381V23.5909H107.77L107.812 7.89049H111.25L112.191 6.45919H107.816L107.82 5.02789H110.726L111.668 3.59659H107.824L107.831 0.748008L102.588 0.733887L102.586 0.737867L101.125 0.733887L101.122 0.738739L99.2412 3.59719L99.2416 3.59665H100.705L100.497 3.91204L99.7627 5.02795H98.2997L98.2996 5.02827L97.3578 6.45941H100.378L99.436 7.89043H96.4162L89.8241 17.9082H90.9948L90.0529 19.3393H88.8825L87.9396 20.7722H83.5767L82.6349 22.2035H86.9978L84.4331 26.1009L84.4321 26.4974H81.4501L80.5082 27.9287H84.4283L84.419 31.3629L101.043 31.4077L101.041 32.1788H102.535V33.6976H101.037L101.034 35.0852L101.03 36.5165L101.022 39.3648L104.612 39.3745V39.3791H110.986L111.928 37.9478H107.732L107.736 36.5165H110.218L111.16 35.0852H107.74L107.75 31.4296V31.4257L109.63 31.4308L111.146 31.4349V31.4309L112.609 31.4349L112.611 30.7913H114.008L114.95 29.36H112.614L112.618 27.9286H115.544L116.486 26.4974L112.622 26.4973ZM102.574 25.1097H101.06L101.057 26.1416L99.5441 26.1375L93.0819 26.1202L95.727 22.2035L96.6936 20.7721L99.5687 16.5148L101.089 14.2631L101.064 23.5909H102.574L102.574 25.1097Z" fill="#B12C4D"/>
<path d="M77.0401 16.4781L77.982 15.0468H73.9812L73.9877 12.5985C73.9926 10.9399 73.6679 9.34389 73.0754 7.89035H74.554L75.4959 6.45905H72.3817C72.0981 5.95881 71.7808 5.48077 71.4332 5.02775H75.1611L76.1029 3.59645H70.1463C69.6624 3.1358 69.1411 2.71419 68.5872 2.33637C66.6285 0.998751 64.2466 0.211098 61.7053 0.205373C61.4532 0.204664 61.2025 0.21175 60.9535 0.2262C60.7255 0.213004 60.4961 0.205918 60.2653 0.205373C59.941 0.204446 59.619 0.216278 59.3 0.240325C57.9543 0.341855 56.6618 0.661552 55.4682 1.16484C54.0828 1.74894 52.8291 2.57695 51.7583 3.59629H53.7268C53.2621 4.03873 52.8318 4.51732 52.4401 5.02759H50.4716C50.3221 5.22231 50.1783 5.42155 50.0403 5.62527C48.7682 7.50135 47.9954 9.76436 47.9226 12.1841H43.3754L42.4336 13.6154H47.914L47.8949 20.772H44.3538L43.4119 22.2033H47.891L47.8795 26.4967V26.4972H43.6829L42.7411 27.9284H47.9578C48.0911 29.1126 48.3917 30.2508 48.8356 31.3111C49.4267 32.7234 50.2687 33.9993 51.3065 35.085H54.8318C55.332 35.6082 55.8777 36.0874 56.4627 36.5162H52.9373C53.0501 36.5989 53.1643 36.6798 53.28 36.7588C55.0114 37.9412 57.0736 38.6937 59.2843 38.8564C59.5744 38.8777 59.867 38.889 60.1619 38.8897V38.8898C60.4142 38.8905 60.665 38.8834 60.9141 38.8689C61.1419 38.8821 61.3712 38.8892 61.6018 38.8897V38.8898C63.2948 38.8947 64.9225 38.5527 66.399 37.9302C68.6152 36.9959 70.4943 35.4375 71.827 33.4698C72.3861 32.6451 72.8487 31.7457 73.1979 30.7911H76.0343L76.9761 29.3598H73.6253C73.7347 28.8919 73.8175 28.4142 73.8722 27.9284H76.3207L77.2625 26.4972H73.9506L73.9774 16.478H77.0401V16.4781ZM60.9134 33.4099C60.6004 33.3774 60.2947 33.324 59.9969 33.2513C59.6309 33.1618 59.2767 33.0431 58.9359 32.8975C57.7039 32.3713 56.6484 31.4877 55.9077 30.3802C55.1672 29.2708 54.7398 27.9534 54.7425 26.5114L54.7541 22.2046H56.5037L57.4718 20.7735H54.7579L54.7799 12.5467C54.7829 11.5841 54.9777 10.6817 55.3276 9.85651C55.6354 9.13064 56.0661 8.46595 56.5924 7.89024H59.0583L60 6.45921H58.4306C58.9301 6.19116 59.4643 5.98351 60.0273 5.8455C60.3283 5.77167 60.6376 5.71791 60.954 5.68519C61.6518 5.75761 62.3134 5.93373 62.9315 6.19764C64.1635 6.72395 65.219 7.60757 65.9597 8.71497C66.6236 9.70951 67.0355 10.8715 67.1118 12.1404H65.6404V13.6592H67.1221L67.0876 26.5484C67.0847 27.511 66.8898 28.4135 66.5399 29.2386C66.0155 30.4751 65.1351 31.5345 64.0316 32.2778C63.118 32.892 62.063 33.2912 60.9134 33.4099Z" fill="#B12C4D"/>
<path d="M33.7394 26.4974L33.7403 26.1728L28.8809 26.1598L28.9143 13.6594H27.4434V12.1406H28.9183L28.9373 5.02789H31.7712L32.7129 3.59659H28.9411L28.9487 0.748008L25.166 0.737867L23.7056 0.733887L23.7024 0.738739L21.8219 3.59659H23.2849L22.343 5.02789H20.8801L20.8799 5.02822L19.9381 6.45935H22.958L22.0164 7.89038H18.9965L12.4044 17.9082H13.5751L12.6332 19.3393H11.4627L10.5198 20.7722H6.15697L5.21513 22.2035H9.57795L7.01334 26.1009L7.01225 26.4974H4.03022L3.08838 27.9287H7.00839L6.99916 31.3629L23.6236 31.4077L23.6215 32.1788H25.1155V33.6976H23.6175L23.6138 35.0852L23.61 36.5165L23.6024 39.3648L27.1919 39.3745V39.3791H32.0308L32.9726 37.9478H28.8493L28.8531 36.5165H31.2631L32.2049 35.0852H28.8569L28.8667 31.4256V31.4217L30.3296 31.4256L32.2106 31.4307L33.7262 31.4348V31.4308L33.7279 30.7912H35.0533L35.1914 30.5813L35.9951 29.3599H33.7317L33.7355 27.9285H36.5885L37.5304 26.4973H33.7394V26.4974ZM23.6405 25.1098L23.6377 26.1417V26.1457L22.1243 26.1416L14.1992 26.1202L16.8442 22.2035H13.5677L14.4137 20.9177L14.5095 20.7722H17.8108L22.1545 14.3404L23.6753 12.0884L23.6695 14.2633L23.6446 23.591H25.1539V25.1099H23.6405V25.1098Z" fill="#2C46B1"/>
<path d="M111.159 26.4974L111.16 26.1728L106.301 26.1598L106.334 13.6594H104.863V12.1406H106.338L106.357 5.02789H109.191L110.133 3.59659H106.361L106.368 0.748008L102.586 0.737867L101.125 0.733887L101.122 0.738739L99.2412 3.59719L99.2416 3.59665H100.705L100.497 3.91204L99.7626 5.02795H98.2997L98.2996 5.02827L97.3578 6.45941H100.378L99.436 7.89043H96.4162L89.8241 17.9082H90.9948L90.0529 19.3393H88.8824L87.9396 20.7722H83.5767L82.6349 22.2035H86.9977L84.4331 26.1009L84.432 26.4974H81.4501L80.5082 27.9287H84.4283L84.419 31.3629L101.043 31.4077L101.041 32.1788H102.535V33.6976H101.037L101.034 35.0852L101.03 36.5165L101.022 39.3648L104.612 39.3745V39.3791H109.451L110.392 37.9478H106.269L106.273 36.5165H108.683L109.625 35.0852H106.277L106.287 31.4256V31.4217L107.75 31.4256L109.63 31.4307L111.146 31.4348V31.4308L111.148 30.7912H112.473L112.611 30.5813L113.415 29.3599H111.152L111.155 27.9285H114.008L114.95 26.4973H111.159V26.4974ZM101.06 25.1098L101.057 26.1417V26.1457L99.544 26.1416L91.6189 26.1202L94.2639 22.2035H90.9872L91.8334 20.9177L91.9291 20.7722H95.2305L99.5741 14.3404L101.095 12.0884L101.089 14.2633L101.064 23.591H102.573V25.1099H101.06V25.1098Z" fill="#2C46B1"/>
<path d="M72.4321 27.9285H74.7853L75.7272 26.4973H72.5106L72.5374 16.4781H71.6669L71.6707 15.0468H72.5412L72.5477 12.5985C72.5526 10.9399 72.2279 9.3439 71.6354 7.89035H70.6833C70.4715 7.3954 70.2289 6.91757 69.9577 6.45905H70.9416C70.658 5.95881 70.3408 5.48077 69.9932 5.02775H73.6258L74.5677 3.59645H68.787V3.67399C68.2805 3.18308 67.732 2.73535 67.1472 2.33637C65.3665 1.12024 63.2357 0.35876 60.9535 0.226203C60.7255 0.213008 60.4961 0.205918 60.2653 0.205373C59.941 0.204446 59.619 0.216278 59.3 0.240325C57.9543 0.341855 56.6618 0.661552 55.4682 1.16484C54.0828 1.74894 52.8291 2.57695 51.7583 3.59629H53.7268C53.2621 4.03873 52.8318 4.51732 52.4401 5.02759H50.4716C50.3221 5.22231 50.1783 5.42155 50.0403 5.62527C48.7682 7.50135 47.9954 9.76436 47.9226 12.1841H43.3754L42.4336 13.6154H47.914L47.8949 20.772H44.3537L43.4118 22.2033H47.891L47.8795 26.4967V26.4972H43.6829L42.7411 27.9284H47.9577C48.0911 29.1126 48.3917 30.2508 48.8355 31.3111C49.4267 32.7234 50.2686 33.9993 51.3065 35.085H54.8318C55.3319 35.6082 55.8776 36.0874 56.4627 36.5162H52.9372C53.05 36.5989 53.1642 36.6798 53.2799 36.7588C55.0114 37.9412 57.0736 38.6937 59.2843 38.8564C59.5744 38.8777 59.867 38.889 60.1618 38.8897C60.4142 38.8905 60.665 38.8834 60.9141 38.8689C62.3365 38.7864 63.7025 38.46 64.959 37.9302C67.1752 36.9959 69.0542 35.4375 70.3869 33.4698C70.946 32.6451 71.4087 31.7457 71.7579 30.7911H74.499L75.4408 29.3598H72.1852C72.2946 28.892 72.3775 28.4143 72.4321 27.9285ZM57.4959 32.8976C56.2639 32.3713 55.2084 31.4877 54.4677 30.3802C53.7272 29.2709 53.2998 27.9535 53.3025 26.5115L53.314 22.2047H52.772L52.7753 20.7736H53.3179L53.3399 12.5468C53.3428 11.5842 53.5377 10.6817 53.8876 9.85657C54.4119 8.6201 55.2924 7.56079 56.3959 6.81736C56.5829 6.69167 56.7759 6.5752 56.9743 6.46805L56.98 6.45927H56.9905C57.6981 6.07954 58.4757 5.82113 59.305 5.7099C59.6135 5.66851 59.929 5.6473 60.2508 5.6479C60.4889 5.64861 60.7234 5.66126 60.9539 5.68525C61.6517 5.75766 62.3133 5.93379 62.9314 6.1977C64.1634 6.724 65.2189 7.60763 65.9596 8.71503C66.6235 9.70956 67.0354 10.8715 67.1117 12.1405H65.6402V13.6592H67.122L67.0875 26.5484C67.0845 27.5111 66.8897 28.4136 66.5398 29.2387C66.0154 30.4751 65.135 31.5345 64.0315 32.2778C63.1181 32.892 62.0631 33.2912 60.9135 33.4099C60.6719 33.4349 60.4262 33.4477 60.1766 33.4473H60.1766C59.8712 33.4463 59.5719 33.4258 59.2791 33.3869C58.6525 33.3038 58.0562 33.1369 57.4959 32.8976ZM68.4113 25.1097V23.5909H70.1581V25.1097H68.4113Z" fill="#2C46B1"/>
<path d="M31.0303 16.4782H38.8434L39.7851 15.0469H31.9721L31.0303 16.4782Z" fill="#B12C4D"/>
<path d="M108.45 16.4782H116.263L117.205 15.0469H109.392L108.45 16.4782Z" fill="#B12C4D"/>
<path d="M12.9917 12.1843H5.1786L4.23682 13.6156H12.0498L12.9917 12.1843Z" fill="#2C46B1"/>
<path d="M90.4115 12.1843H82.5985L81.6566 13.6156H89.4697L90.4115 12.1843Z" fill="#2C46B1"/>
</svg>
