<svg width="12" height="13" viewBox="0 0 12 13" fill="none" xmlns="http://www.w3.org/2000/svg">
<path d="M12 8V12C12 12.1326 11.9473 12.2598 11.8536 12.3536C11.7598 12.4473 11.6326 12.5 11.5 12.5H0.5C0.367392 12.5 0.240215 12.4473 0.146447 12.3536C0.0526785 12.2598 0 12.1326 0 12V8C0 7.86739 0.0526785 7.74021 0.146447 7.64645C0.240215 7.55268 0.367392 7.5 0.5 7.5C0.632608 7.5 0.759785 7.55268 0.853553 7.64645C0.947321 7.74021 1 7.86739 1 8V11.5H11V8C11 7.86739 11.0527 7.74021 11.1464 7.64645C11.2402 7.55268 11.3674 7.5 11.5 7.5C11.6326 7.5 11.7598 7.55268 11.8536 7.64645C11.9473 7.74021 12 7.86739 12 8ZM5.64625 8.35375C5.69269 8.40024 5.74783 8.43712 5.80853 8.46228C5.86923 8.48744 5.93429 8.50039 6 8.50039C6.06571 8.50039 6.13077 8.48744 6.19147 8.46228C6.25217 8.43712 6.30731 8.40024 6.35375 8.35375L8.85375 5.85375C8.90021 5.8073 8.93706 5.75214 8.9622 5.69145C8.98734 5.63075 9.00028 5.5657 9.00028 5.5C9.00028 5.4343 8.98734 5.36925 8.9622 5.30855C8.93706 5.24786 8.90021 5.1927 8.85375 5.14625C8.8073 5.09979 8.75214 5.06294 8.69145 5.0378C8.63075 5.01266 8.5657 4.99972 8.5 4.99972C8.4343 4.99972 8.36925 5.01266 8.30855 5.0378C8.24786 5.06294 8.1927 5.09979 8.14625 5.14625L6.5 6.79313V1C6.5 0.867392 6.44732 0.740215 6.35355 0.646447C6.25979 0.552678 6.13261 0.5 6 0.5C5.86739 0.5 5.74021 0.552678 5.64645 0.646447C5.55268 0.740215 5.5 0.867392 5.5 1V6.79313L3.85375 5.14625C3.75993 5.05243 3.63268 4.99972 3.5 4.99972C3.36732 4.99972 3.24007 5.05243 3.14625 5.14625C3.05243 5.24007 2.99972 5.36732 2.99972 5.5C2.99972 5.63268 3.05243 5.75993 3.14625 5.85375L5.64625 8.35375Z" fill="#4d505c"/>
</svg>
