<svg width="28" height="25" viewBox="0 0 28 25" fill="none" xmlns="http://www.w3.org/2000/svg">
<path d="M27.6001 20.5113L16.6688 1.52758C16.3956 1.06249 16.0057 0.676856 15.5376 0.408908C15.0695 0.14096 14.5394 0 14.0001 0C13.4607 0 12.9307 0.14096 12.4626 0.408908C11.9944 0.676856 11.6045 1.06249 11.3313 1.52758L0.400059 20.5113C0.137229 20.9612 -0.00128174 21.4728 -0.00128174 21.9938C-0.00128174 22.5148 0.137229 23.0265 0.400059 23.4763C0.669722 23.9442 1.05902 24.332 1.52801 24.5997C1.997 24.8675 2.52879 25.0057 3.06881 25.0001H24.9313C25.4709 25.0052 26.0022 24.8669 26.4707 24.5991C26.9392 24.3314 27.3281 23.9439 27.5976 23.4763C27.8608 23.0267 27.9997 22.5152 28.0002 21.9942C28.0006 21.4732 27.8625 20.9614 27.6001 20.5113ZM25.8663 22.4751C25.771 22.6376 25.6342 22.7719 25.4699 22.8642C25.3056 22.9564 25.1197 23.0033 24.9313 23.0001H3.06881C2.88041 23.0033 2.69452 22.9564 2.53022 22.8642C2.36592 22.7719 2.22911 22.6376 2.13381 22.4751C2.04749 22.3289 2.00196 22.1623 2.00196 21.9926C2.00196 21.8228 2.04749 21.6562 2.13381 21.5101L13.0651 2.52633C13.1623 2.36455 13.2997 2.23068 13.464 2.13774C13.6283 2.04479 13.8138 1.99595 14.0026 1.99595C14.1913 1.99595 14.3768 2.04479 14.5411 2.13774C14.7054 2.23068 14.8428 2.36455 14.9401 2.52633L25.8713 21.5101C25.9569 21.6567 26.0015 21.8235 26.0007 21.9933C25.9998 22.163 25.9534 22.3294 25.8663 22.4751ZM13.0001 15.0001V10.0001C13.0001 9.73487 13.1054 9.48051 13.293 9.29298C13.4805 9.10544 13.7348 9.00008 14.0001 9.00008C14.2653 9.00008 14.5196 9.10544 14.7072 9.29298C14.8947 9.48051 15.0001 9.73487 15.0001 10.0001V15.0001C15.0001 15.2653 14.8947 15.5197 14.7072 15.7072C14.5196 15.8947 14.2653 16.0001 14.0001 16.0001C13.7348 16.0001 13.4805 15.8947 13.293 15.7072C13.1054 15.5197 13.0001 15.2653 13.0001 15.0001ZM15.5001 19.5001C15.5001 19.7968 15.4121 20.0868 15.2473 20.3334C15.0824 20.5801 14.8482 20.7724 14.5741 20.8859C14.3 20.9994 13.9984 21.0291 13.7074 20.9713C13.4165 20.9134 13.1492 20.7705 12.9394 20.5607C12.7296 20.351 12.5868 20.0837 12.5289 19.7927C12.471 19.5017 12.5007 19.2001 12.6142 18.9261C12.7278 18.652 12.92 18.4177 13.1667 18.2529C13.4134 18.0881 13.7034 18.0001 14.0001 18.0001C14.3979 18.0001 14.7794 18.1581 15.0607 18.4394C15.342 18.7207 15.5001 19.1023 15.5001 19.5001Z" fill="#b12c4d"/>
</svg>
