<svg width="28" height="24" viewBox="0 0 28 24" fill="none" xmlns="http://www.w3.org/2000/svg">
<path d="M28 7.02876C27.9498 8.76957 27.234 10.4249 26 11.6538L21.6562 16C21.0236 16.6361 20.2711 17.1404 19.4422 17.4837C18.6133 17.827 17.7246 18.0025 16.8275 18H16.8212C15.9088 17.9994 15.0057 17.8159 14.1654 17.4603C13.325 17.1048 12.5644 16.5845 11.9286 15.9301C11.2927 15.2757 10.7944 14.5005 10.4632 13.6503C10.1319 12.8001 9.97443 11.8921 9.99998 10.98C10.0074 10.7148 10.12 10.4634 10.3128 10.2811C10.5056 10.0989 10.7629 10.0007 11.0281 10.0081C11.2933 10.0156 11.5447 10.1281 11.727 10.3209C11.9092 10.5137 12.0074 10.771 12 11.0363C11.9818 11.6812 12.093 12.3232 12.3271 12.9244C12.5613 13.5256 12.9135 14.0737 13.3631 14.5364C13.8127 14.9992 14.3504 15.3671 14.9446 15.6185C15.5388 15.8699 16.1773 15.9996 16.8225 16C17.4567 16.0016 18.0849 15.8775 18.6709 15.6349C19.2568 15.3922 19.7889 15.0358 20.2362 14.5863L24.58 10.2425C25.4762 9.33502 25.977 8.10981 25.973 6.83439C25.969 5.55897 25.4605 4.33692 24.5587 3.43506C23.6568 2.53319 22.4348 2.02476 21.1593 2.02077C19.8839 2.01678 18.6587 2.51755 17.7512 3.41376L16.3762 4.78876C16.1872 4.96838 15.9354 5.06703 15.6747 5.0637C15.4139 5.06036 15.1648 4.95529 14.9804 4.77088C14.7959 4.58648 14.6909 4.33734 14.6875 4.07658C14.6842 3.81582 14.7829 3.56407 14.9625 3.37501L16.3375 2.00001C16.9718 1.36542 17.725 0.862023 18.554 0.518574C19.3829 0.175125 20.2714 -0.00164795 21.1687 -0.00164795C22.066 -0.00164795 22.9545 0.175125 23.7835 0.518574C24.6124 0.862023 25.3656 1.36542 26 2.00001C26.657 2.6587 27.1732 3.44422 27.517 4.30874C27.8609 5.17326 28.0252 6.09871 28 7.02876ZM11.625 19.2075L10.25 20.5825C9.80151 21.034 9.26777 21.3918 8.67979 21.6351C8.09181 21.8785 7.46132 22.0025 6.82498 22C5.87036 21.9992 4.93738 21.7155 4.14394 21.1847C3.35049 20.6539 2.73218 19.8999 2.36712 19.0178C2.00207 18.1357 1.90666 17.1653 2.09294 16.229C2.27923 15.2927 2.73885 14.4327 3.41373 13.7575L7.74998 9.41376C8.43296 8.72717 9.30661 8.26181 10.2575 8.07812C11.2083 7.89442 12.1924 8.00088 13.082 8.38367C13.9716 8.76645 14.7255 9.40788 15.2459 10.2246C15.7662 11.0414 16.029 11.9958 16 12.9638C15.9925 13.229 16.0907 13.4863 16.273 13.6791C16.4552 13.8719 16.7066 13.9844 16.9719 13.9919C17.2371 13.9993 17.4944 13.9011 17.6872 13.7189C17.88 13.5366 17.9925 13.2852 18 13.02C18.024 12.0914 17.8591 11.1676 17.5153 10.3047C17.1715 9.44177 16.656 8.65768 16 8.00001C14.719 6.71954 12.9819 6.00023 11.1706 6.00023C9.35936 6.00023 7.62225 6.71954 6.34123 8.00001L1.99998 12.3438C1.04527 13.2981 0.394876 14.514 0.130994 15.8378C-0.132888 17.1617 0.00158519 18.5341 0.517419 19.7815C1.03325 21.029 1.9073 22.0955 3.02909 22.8463C4.15089 23.5972 5.47009 23.9987 6.81998 24C7.71732 24.0026 8.60626 23.8272 9.43533 23.4839C10.2644 23.1406 11.0171 22.6362 11.65 22L13.025 20.625C13.1868 20.4344 13.2714 20.1901 13.2619 19.9402C13.2525 19.6903 13.1499 19.453 12.9741 19.2751C12.7984 19.0972 12.5624 18.9916 12.3127 18.9791C12.063 18.9666 11.8176 19.0481 11.625 19.2075Z" fill="#74798b"/>
</svg>
